
<svg width="88" height="262" viewBox="0 0 88 262" fill="none" xmlns="http://www.w3.org/2000/svg">
<path d="M-13.9578 264.948L87.1884 267.589C89.0459 248.067 82.9756 231.58 72.185 226.52C70.1796 225.579 62.5917 222.017 55.8611 224.943C51.6286 226.781 51.5399 229.536 47.1793 231.359C41.7741 233.615 34.5409 232.462 29.8207 228.718C21.1142 221.815 23.5828 208.215 23.7799 207.205C26.8003 191.847 41.9613 191.941 53.5945 175.883C65.0454 160.081 69.746 133.238 59.2559 117.387C51.6631 105.911 39.6357 105.537 29.0619 87.1925C25.5635 81.1271 24.0312 76.2245 23.4005 73.9826C19.9366 61.6596 21.9371 52.0416 22.2672 47.5627C22.9964 37.6738 17.7687 22.7886 -9.81396 1.5177C-11.1936 89.331 -12.5781 177.139 -13.9578 264.948Z" fill="#BB6F4D"/>
<path d="M-76 1.99999C-16.6119 24.1903 3.76091 50.1233 11.5432 69.362C31.2781 118.143 -11.2775 169.983 21.7177 196.508C34.5474 206.825 48.5492 205.057 60.6453 220.034C72.9886 235.317 71.944 253.911 69.3605 266.775C20.9044 270.856 -27.5438 274.932 -76 279L-76 1.99999Z" stroke="#F3EBE1" stroke-width="2" stroke-miterlimit="10"/>
</svg>
