
<svg width="172" height="445" viewBox="0 0 172 445" fill="none" xmlns="http://www.w3.org/2000/svg">
<path d="M-25.3358 329.898C-17.2946 338.583 -5.60813 344.196 3.40562 339.869C18.0711 332.831 22.107 318.985 22.7656 314.061C25.1091 296.462 19.2582 282.134 14.556 272.415C11.263 265.607 10.7039 266.557 5.75669 257.168C-0.0482535 246.148 -5.38604 236.008 -7.14743 224.904C-9.2994 211.333 -7.4461 187.922 6.92841 177.974C19.6564 169.167 31.1055 178.571 41.536 169.175C50.9556 160.682 51.6832 143.925 47.9919 132.216C41.7657 112.488 25.2852 113.775 16.8994 97.0187C5.86391 74.9553 17.6346 39.1148 41.1837 20.8805C70.1855 -1.57346 108.461 9.33187 111.333 10.2049C133.971 17.082 143.123 31.4718 154.74 27.2139C165.737 23.1856 169.628 5.86269 171.167 -8.56543H-52.8212C-43.6619 104.256 -34.495 217.077 -25.3358 329.898Z" fill="#ACC4AB"/>
<path fill-rule="evenodd" clip-rule="evenodd" d="M149.08 -18.1914L148.601 -16.814C142.403 1.00161 134.989 18.2616 126.256 31.2748C117.55 44.2477 107.369 53.2411 95.5701 54.0277C95.5701 54.0277 95.5702 54.0277 95.5701 54.0277C88.1209 54.5256 81.4899 51.6473 75.4196 47.26C69.3625 42.8822 63.7712 36.9326 58.4036 31.1653C58.2435 30.9933 58.0836 30.8215 57.924 30.6499C52.6955 25.0304 47.6829 19.6429 42.5558 15.8944C37.2875 12.0426 32.0553 10.0387 26.4914 11.1919C21.9356 12.1358 17.5946 15.1024 13.6551 19.6492C9.71951 24.1916 6.23713 30.2527 3.39704 37.2536C-2.28415 51.258 -5.33637 68.8769 -4.38768 85.2362C-3.00058 109.164 6.59856 125.788 15.6384 141.443C15.9803 142.035 16.3214 142.626 16.6612 143.216C25.975 159.377 34.3682 174.813 31.3838 196.3C30.9109 199.687 29.7253 207.687 26.6473 215.746C23.5816 223.773 18.5566 232.077 10.2702 235.787C3.31853 238.899 -4.74924 239.133 -11.7398 237.97C-18.6985 236.813 -24.7981 234.235 -27.773 231.507C-27.7731 231.507 -27.773 231.507 -27.773 231.507C-37.5013 222.59 -47.6069 215.171 -56.1014 208.934C-56.7866 208.431 -57.4613 207.936 -58.1244 207.448C-62.5568 204.188 -66.4908 201.252 -69.5747 198.612C-72.6333 195.994 -74.9714 193.573 -76.0933 191.325L-76.164 191.183L-106.267 -9.52674L-105.145 -9.56476C-63.0213 -10.9929 -20.8971 -12.4229 21.2271 -13.853L21.2593 -13.8541C63.3803 -15.284 105.501 -16.714 147.622 -18.142L149.08 -18.1914ZM-103.956 -7.60393L-74.2338 190.568C-73.2758 192.396 -71.244 194.55 -68.2741 197.093C-65.2551 199.677 -61.38 202.571 -56.9394 205.837C-56.2744 206.326 -55.5971 206.824 -54.9086 207.329C-46.4224 213.559 -36.2337 221.039 -26.4214 230.033C-23.8518 232.389 -18.1881 234.87 -11.4117 235.997C-4.66728 237.119 2.97215 236.863 9.45303 233.962C17.0038 230.581 21.7736 222.902 24.7789 215.033C27.7718 207.196 28.9336 199.385 29.4028 196.025C32.2846 175.277 24.2432 160.378 14.9283 144.214C14.5768 143.604 14.2235 142.993 13.869 142.379C4.84106 126.747 -4.96933 109.761 -6.38433 85.3519C-7.3502 68.6965 -4.24903 50.7812 1.54374 36.5018C4.44063 29.3608 8.02536 23.0927 12.1436 18.3396C16.2579 13.5909 20.9576 10.296 26.0855 9.23348C32.4378 7.91688 38.2498 10.2686 43.7363 14.2799C49.021 18.1437 54.1492 23.6561 59.3203 29.2145C59.5027 29.4105 59.6851 29.6066 59.8676 29.8027C65.2589 35.5955 70.7198 41.3956 76.5912 45.6391C82.4492 49.873 88.6227 52.4876 95.4371 52.0321C106.269 51.31 115.976 43.0034 124.595 30.1604C132.964 17.6891 140.153 1.16676 146.23 -16.0936C104.59 -14.6819 62.9501 -13.2683 21.3103 -11.8547L21.3031 -11.8544C-20.45 -10.437 -62.2031 -9.01952 -103.956 -7.60393Z" fill="#F3EBE1"/>
<path d="M24.5118 418.067C24.3663 420.036 23.7306 428.728 16.5166 434.808C10.0453 440.261 2.34116 440.184 -2.41461 440.138C-6.75683 440.093 -13.8254 440.024 -19.7375 435.521C-29.5248 428.061 -28.7283 414.085 -28.445 409.061C-28.3607 407.599 -27.3422 393.469 -16.253 382.602C-12.8834 379.301 -8.5948 375.105 -3.87732 375.855C-0.0558605 376.46 0.702295 379.784 8.49838 388.637C15.2759 396.333 16.1719 395.491 19.0514 400.002C21.0809 403.18 25.1244 409.498 24.4964 418.067H24.5118Z" fill="#ACC4AB"/>
<path fill-rule="evenodd" clip-rule="evenodd" d="M-4.4717 386.133C-10.202 391.658 -15.3733 399.799 -16.8129 408.693C-17.3263 411.863 -17.8958 418.429 -15.0181 425.646C-13.629 429.118 -9.60955 439.092 0.785446 442.151C9.25062 444.643 18.3784 441.51 24.0431 435.609C31.5039 427.84 31.9261 416.28 28.7406 408.931C27.4511 405.953 25.9355 404.509 24.004 402.669C23.9502 402.618 23.8962 402.566 23.8418 402.515C21.7937 400.562 19.3906 398.206 16.6576 393.388C14.0796 388.844 13.1522 385.542 12.502 383.227C12.4859 383.169 12.47 383.113 12.4542 383.057C11.7826 380.668 11.4587 379.838 10.3179 379.337C8.88181 378.709 6.70349 378.914 4.00852 380.117C1.35537 381.301 -1.60937 383.372 -4.4717 386.133ZM30.5756 408.135C29.1235 404.783 27.3571 403.1 25.4167 401.253C25.352 401.191 25.287 401.129 25.2219 401.067C23.2437 399.181 20.9944 396.98 18.3972 392.401C15.9393 388.069 15.0638 384.952 14.4273 382.685C14.4112 382.628 14.3953 382.571 14.3795 382.515L14.357 382.435C13.7448 380.257 13.2319 378.432 11.1214 377.505L11.1201 377.505C8.90708 376.536 6.06656 377.008 3.19332 378.29C0.277977 379.592 -2.87526 381.815 -5.85999 384.693C-11.8238 390.444 -17.263 398.956 -18.7872 408.373M30.5756 408.135C34.0221 416.087 33.6018 428.543 25.4857 436.994C19.3721 443.362 9.49209 446.799 0.220896 444.069C-11.1409 440.726 -15.4666 429.91 -16.8558 426.437L-16.8756 426.387C-19.9404 418.701 -19.3305 411.728 -18.7872 408.373" fill="#F3EBE1"/>
</svg>
