
<svg width="158" height="335" viewBox="0 0 158 335" fill="none" xmlns="http://www.w3.org/2000/svg">
<path d="M196.503 11.4638C188.462 2.77939 176.775 -2.83408 167.761 1.49283C153.096 8.53076 149.06 22.3768 148.401 27.3011C146.058 44.8997 151.909 59.2283 156.611 68.9466C159.904 75.7548 160.463 74.8051 165.41 84.1942C171.215 95.2144 176.553 105.354 178.314 116.458C180.466 130.029 178.613 153.44 164.239 163.388C151.511 172.195 140.062 162.791 129.631 172.187C120.211 180.68 119.484 197.437 123.175 209.146C129.401 228.874 145.882 227.587 154.268 244.343C165.303 266.407 153.532 302.247 129.983 320.481C100.982 342.935 62.7057 332.03 59.8338 331.157C37.1961 324.28 28.0445 309.89 16.4269 314.148C5.42969 318.176 1.53931 335.499 0 349.927L223.988 349.927C214.829 237.106 205.662 124.285 196.503 11.4638Z" fill="#ACC4AB"/>
<path fill-rule="evenodd" clip-rule="evenodd" d="M22.0871 359.553L22.5663 358.176C28.7643 340.36 36.1783 323.1 44.9113 310.087C53.6173 297.114 63.7983 288.121 75.5968 287.334C75.5969 287.334 75.5968 287.334 75.5968 287.334C83.0461 286.836 89.677 289.715 95.7474 294.102C101.804 298.48 107.396 304.429 112.763 310.197C112.923 310.369 113.083 310.541 113.243 310.712C118.471 316.332 123.484 321.719 128.611 325.468C133.879 329.319 139.112 331.323 144.676 330.17C149.231 329.226 153.572 326.26 157.512 321.713C161.447 317.17 164.93 311.109 167.77 304.108C173.451 290.104 176.503 272.485 175.555 256.126C174.168 232.198 164.568 215.574 155.529 199.919C155.187 199.327 154.846 198.736 154.506 198.146C145.192 181.985 136.799 166.549 139.783 145.062C140.256 141.675 141.442 133.675 144.52 125.616C147.585 117.589 152.61 109.285 160.897 105.575C167.848 102.463 175.916 102.229 182.907 103.392C189.866 104.549 195.965 107.127 198.94 109.855C198.94 109.855 198.94 109.855 198.94 109.855C208.668 118.772 218.774 126.191 227.268 132.428C227.954 132.931 228.628 133.426 229.291 133.914C233.724 137.174 237.658 140.11 240.742 142.75C243.8 145.368 246.138 147.789 247.26 150.037L247.331 150.179L277.434 350.889L276.312 350.927C234.188 352.355 192.064 353.785 149.94 355.215L149.908 355.216C107.787 356.646 65.6657 358.076 23.5446 359.504L22.0871 359.553ZM275.123 348.966L245.401 150.794C244.443 148.966 242.411 146.812 239.441 144.27C236.422 141.685 232.547 138.791 228.106 135.525C227.441 135.036 226.764 134.539 226.076 134.033C217.589 127.803 207.401 120.323 197.588 111.329C195.019 108.973 189.355 106.492 182.579 105.365C175.834 104.243 168.195 104.5 161.714 107.4C154.163 110.781 149.393 118.46 146.388 126.33C143.395 134.166 142.233 141.977 141.764 145.337C138.882 166.085 146.924 180.984 156.239 197.148C156.59 197.758 156.943 198.37 157.298 198.983C166.326 214.615 176.136 231.601 177.551 256.01C178.517 272.666 175.416 290.581 169.623 304.86C166.726 312.001 163.142 318.269 159.023 323.022C154.909 327.771 150.209 331.066 145.081 332.129C138.729 333.445 132.917 331.093 127.431 327.082C122.146 323.218 117.018 317.706 111.847 312.148C111.664 311.952 111.482 311.755 111.299 311.559C105.908 305.767 100.447 299.966 94.5758 295.723C88.7178 291.489 82.5443 288.874 75.7299 289.33C64.8983 290.052 55.1909 298.359 46.572 311.202C38.2027 323.673 31.0141 340.195 24.9373 357.456C66.5771 356.044 108.217 354.63 149.857 353.217L149.864 353.216C191.617 351.799 233.37 350.382 275.123 348.966Z" fill="#F3EBE1"/>
</svg>
