
<svg width="215" height="248" viewBox="0 0 215 248" fill="none" xmlns="http://www.w3.org/2000/svg">
<path d="M38.5325 -27.3356C37.6442 -11.3605 44.6285 3.67261 57.1497 11.6448C58.7043 12.6327 71.3098 20.5973 85.5541 17.1971C95.3796 14.8536 97.3938 8.89552 106.239 7.46343C116.792 5.75564 130.692 11.53 136.527 21.0415C149.661 42.4386 116.202 73.1788 128.693 89.4525C134.781 97.3865 149.991 99.5461 158.461 94.6755C167.13 89.6899 166.111 78.8459 174.65 76.3952C180.21 74.8023 187.401 77.4521 190.84 82.1389C195.909 89.0467 191.774 98.9181 184.575 119.22C177.062 140.387 173.31 150.971 170.997 159.954C166.816 176.197 161.034 198.628 169.956 221.059C172.314 226.987 180.141 245.857 193.979 247.174C206.554 248.369 221.404 234.775 227.415 212.574C229.674 130.455 231.934 48.3278 234.193 -33.7915C168.975 -31.6395 103.75 -29.4876 38.5325 -27.3356Z" fill="#BB6F4D"/>
<path fill-rule="evenodd" clip-rule="evenodd" d="M281.245 -44.2666L281.203 -43.1502C279.836 -7.17173 278.467 28.8048 277.098 64.7813L277.036 66.4136C275.688 101.846 274.34 137.278 272.993 172.713L272.855 176.344L271.116 173.153C258.425 149.873 250.236 136.028 244.987 128.122C242.358 124.161 240.491 121.731 239.186 120.355C238.529 119.662 238.059 119.285 237.746 119.106C237.721 119.092 237.699 119.08 237.679 119.069C237.674 119.084 237.669 119.1 237.664 119.118C237.583 119.402 237.528 119.851 237.523 120.487C237.512 121.75 237.699 123.528 238.053 125.711C238.759 130.063 240.097 135.85 241.673 141.975C244.805 154.153 248.849 167.566 250.63 173.472L250.658 173.565C250.658 173.565 250.658 173.565 250.658 173.565C252.164 178.552 253.549 182.936 254.774 186.812C256.862 193.419 258.484 198.552 259.443 202.689C260.975 209.305 260.904 213.722 258.159 217.818C254.562 223.185 247.505 226.839 239.903 228.188C232.283 229.54 223.883 228.62 217.49 224.561C211.945 221.039 208.921 215.797 207.17 209.838C205.428 203.907 204.923 197.178 204.468 190.606L204.423 189.955C203.982 183.561 203.553 177.344 202.105 171.941C200.615 166.382 198.077 161.811 193.443 158.86C189.43 156.306 185.157 155.798 180.586 156.348C176.267 156.867 171.759 158.319 167.009 159.849C166.691 159.951 166.372 160.054 166.051 160.157C155.957 163.399 144.857 166.721 133.669 160.657C126.497 156.77 120.697 149.788 116.988 141.736C113.277 133.681 111.617 124.466 112.815 116.031C115.298 98.5549 129.364 89.2187 142.679 80.8947C143.238 80.5453 143.795 80.1978 144.351 79.8516C150.475 76.0343 156.346 72.3747 160.968 68.1479C165.984 63.5612 169.436 58.3888 170.102 51.7507C170.711 45.6783 168.922 39.0326 165.369 32.4957C161.82 25.9656 156.541 19.6043 150.273 14.1308C137.7 3.15223 121.359 -4.08221 107.291 -2.19802C95.4184 -0.607162 88.5178 6.89458 81.1038 14.9545C80.8362 15.2454 80.568 15.537 80.2988 15.829C72.6098 24.1727 64.2354 32.7914 49.2092 34.6623C39.7217 35.8414 28.4797 34.2199 19.1751 30.1302C9.89503 26.0513 2.31598 19.4059 0.591716 10.393C-0.585618 4.24026 1.10159 -2.33818 4.82937 -8.51162C8.55951 -14.6889 14.3658 -20.5221 21.5572 -25.2387L21.7742 -25.381L281.245 -44.2666ZM22.4381 -23.424C15.5551 -18.8695 10.0557 -13.2976 6.54145 -7.47779C2.98816 -1.59333 1.49721 4.48347 2.55608 10.0172C4.1019 18.0974 10.9739 24.3409 19.9798 28.2993C28.9612 32.2469 39.8403 33.8113 48.9623 32.6776C63.2134 30.9031 71.1586 22.7962 78.8281 14.4737C79.1352 14.1405 79.4419 13.8067 79.7488 13.4729C87.0668 5.51067 94.4215 -2.49146 107.025 -4.1803C121.89 -6.17115 138.789 1.44756 151.588 12.6243C158.006 18.2284 163.446 24.7703 167.126 31.5406C170.802 38.3042 172.754 45.3562 172.092 51.9505C171.36 59.2428 167.553 64.8368 162.318 69.6239C157.552 73.9821 151.522 77.7393 145.437 81.5313C144.871 81.8839 144.305 82.2368 143.739 82.5906C130.312 90.9845 117.13 99.8787 114.795 116.313C113.658 124.313 115.23 133.141 118.804 140.9C122.38 148.662 127.918 155.266 134.622 158.899C144.969 164.507 155.263 161.522 165.44 158.253C165.776 158.145 166.112 158.036 166.448 157.928C171.144 156.415 175.828 154.906 180.348 154.362C185.229 153.775 190.005 154.301 194.516 157.173C199.722 160.487 202.472 165.584 204.037 171.423C205.536 177.018 205.977 183.409 206.413 189.73C206.43 189.976 206.446 190.222 206.464 190.467C206.921 197.078 207.418 203.587 209.089 209.274C210.751 214.933 213.551 219.69 218.562 222.873C224.423 226.594 232.281 227.509 239.553 226.219C246.842 224.925 253.31 221.461 256.498 216.704C258.777 213.303 258.985 209.575 257.494 203.141C256.552 199.075 254.969 194.066 252.905 187.536C251.677 183.651 250.278 179.227 248.743 174.143L248.713 174.043C246.933 168.138 242.879 154.693 239.736 142.474C238.156 136.334 236.8 130.476 236.079 126.031C235.72 123.815 235.511 121.905 235.523 120.471C235.528 119.759 235.588 119.106 235.74 118.571C235.882 118.071 236.172 117.443 236.816 117.147C237.497 116.835 238.196 117.06 238.738 117.369C239.301 117.691 239.928 118.231 240.637 118.978C242.065 120.484 244.008 123.031 246.653 127.015C251.707 134.627 259.418 147.627 271.132 169.012C272.454 134.242 273.777 99.4737 275.099 64.7052C276.454 29.1009 277.809 -6.50348 279.162 -42.1097L22.4381 -23.424Z" fill="#F3EBE1"/>
</svg>
