<svg width="217" height="158" viewBox="0 0 217 158" fill="none" xmlns="http://www.w3.org/2000/svg">
<path d="M-3.17786 0.692139C0.156655 1.71985 5.14734 3.48693 10.7665 6.48874C40.8733 22.5994 38.9953 47.4494 57.4719 59.7598C83.6527 77.2087 107.711 40.8099 156.665 55.6267C163.866 57.8078 191.141 66.0591 204.235 91.3083C209.115 100.713 210.579 109.696 211.03 115.833C212.982 142.391 214.934 168.956 216.878 195.514L-17.7581 178.516L-3.17786 0.692139Z" fill="#ACC4AB"/>
<path d="M-20.028 19.2724C-15.7915 18.7179 -9.65481 18.5331 -3.17802 20.973C9.84949 25.875 11.2765 36.5144 21.317 44.189C36.3851 55.7231 48.0744 43.1539 68.318 50.9838C92.2142 60.2258 86.4471 81.7857 111.925 96.292C133.515 108.58 145.559 97.5933 166.291 108.188C178.66 114.51 194.335 128.61 204.235 164.254C124.761 161.992 45.287 159.722 -34.1868 157.46L-20.028 19.2724Z" stroke="#F3EBE1" stroke-width="2" stroke-miterlimit="10"/>
</svg>
