<svg width="428" height="239" viewBox="0 0 428 239" fill="none" xmlns="http://www.w3.org/2000/svg">
<path d="M14.4851 132.509C24.0524 123.075 87.97 61.3082 138.66 72.968C170.187 80.2212 186.216 90.0326 186.216 90.0326C202.445 99.9697 210.23 110.166 225.291 110.417C238.008 110.631 247.723 103.622 250.777 101.352C270.436 86.7572 264.396 67.0753 283.057 36.2216C291.863 21.6709 299.227 9.50089 313.312 3.52682C342.265 -8.75405 377.895 14.3289 388.955 21.5008C417.613 40.0737 419.106 55.726 441.62 62.8387C461.73 69.1973 481.752 63.4154 495.985 57.1752C497.87 140.236 499.763 223.296 501.648 306.356L-19.9172 297.306C-8.44979 242.371 3.01766 187.437 14.4851 132.509Z" fill="#BB6F4D"/>
<path d="M452.853 164.265C451.869 197.692 435.441 261.492 381.49 282.564C330.06 302.652 273.891 272.456 245.418 237.107C200.465 181.293 209.093 93.4189 238.224 79.3192C259.754 68.8941 287.783 101.064 316.374 84.9827C328.818 77.9809 338.466 63.482 344.122 54.9645C357.224 35.2604 355.797 25.656 366.606 20.1625C382.074 12.3104 402.199 23.2235 406.421 25.5155C409.445 27.1569 419.19 32.7835 428.506 45.8999C438.997 60.6724 442.065 75.2601 446.627 109.892C450.893 142.276 453.03 158.468 452.86 164.258L452.853 164.265Z" stroke="#F3EBE1" stroke-width="2" stroke-miterlimit="10"/>
</svg>
