
<svg width="316" height="270" viewBox="0 0 316 270" fill="none" xmlns="http://www.w3.org/2000/svg">
<path d="M315.347 285.59C197.516 286.89 79.6765 288.19 -38.1548 289.49V0.48999C-27.9052 3.18999 -12.822 8.92999 1.78883 22.7C23.3508 43.02 22.7919 60.95 45.8024 88.57C54.0367 98.46 71.08 118.91 95.846 126.87C121.919 135.24 130.303 120.89 160.367 121.51C206.27 122.46 240.687 156.68 245.993 162.11C253.944 170.24 284.472 198.08 304.483 250.2C309.884 264.27 313.253 276.69 315.347 285.59Z" fill="#ACC4AB"/>
<path d="M-53.9779 12.78C-49.0184 16.61 -41.4532 23.09 -33.2661 33.07C-8.84651 62.84 -9.90139 85.99 6.03197 101.86C10.6608 106.47 15.1086 108 16.1163 108.49C43.6139 121.79 57.3667 93.44 83.1875 99.31C102.443 103.69 100.168 122.55 136.246 142.97C149.999 150.76 156.958 151.85 160.965 152.16C175.891 153.31 181.929 146.01 196.54 146.03C196.54 146.03 211.835 145.43 226.084 155.99C243.332 168.77 261.674 201.23 266.02 229.73C270.601 259.77 264.209 284.52 260.454 296.16C153.565 297.95 46.6841 299.73 -60.2048 301.52C-58.1344 205.28 -56.0641 109.03 -53.9937 12.79L-53.9779 12.78Z" stroke="#F3EBE1" stroke-width="2" stroke-miterlimit="10"/>
</svg>
