
<svg width="330" height="334" viewBox="0 0 330 334" fill="none" xmlns="http://www.w3.org/2000/svg">
<path d="M165 334C256.127 334 330 259.232 330 167C330 74.7684 256.127 0 165 0C73.873 0 0 74.7684 0 167C0 259.232 73.873 334 165 334Z" fill="#628068"/>
<path d="M113.21 283.35C112.6 289.47 108.64 300.52 102.7 305.03C100.41 306.76 97.79 308.16 97.79 308.16C92.92 311.4 90.91 309.8 88.6 311.76C84.73 315.04 86.75 320.12 83.81 321.32C81.66 322.2 80.1 319.68 74.53 318.26C72.26 317.68 73.21 318.28 66.66 317.54C61.78 316.99 56.51 316.98 51.3 315.24C51.3 315.24 44.6101 313.66 38.24 309.45C29.84 303.9 23.02 293.13 21.88 283.35C19.47 262.68 41.39 237.68 67.55 237.68C94.0601 237.68 115.21 263.35 113.22 283.35H113.21Z" fill="#E7CEBD"/>
<path d="M58.2899 276.09C59.2799 273.17 63.8899 272.05 66.9499 272.2C70.6299 272.38 74.5199 274.53 76.0899 278.17C76.3499 278.78 77.8799 282.32 76.0899 284.84C73.9799 287.8 69.0099 286.94 67.9899 286.73C62.4399 285.6 56.9999 279.93 58.2999 276.09H58.2899Z" fill="#8E412E"/>
<path d="M248.69 8.30994C248.1 13.1599 249.6 14.8299 248.64 15.7799C246.58 17.8099 235.74 13.9299 235.91 8.50994C236 5.70994 239 3.08994 242.03 2.38994C244.5 1.81994 247.95 2.33994 248.95 4.28994C249.46 5.28994 248.98 5.95994 248.7 8.29994L248.69 8.30994Z" fill="#E7CEBD"/>
<path d="M259.07 9.69991C259.4 10.4199 260.33 12.4699 259.54 13.2399C258.8 13.9599 257.01 13.1399 255.9 12.6399C254.5 12.0099 253.04 11.3399 252.59 9.82991C252.34 8.99991 252.33 7.62991 253.23 6.83991C254.34 5.86991 256.02 6.49991 256.33 6.61991C257.95 7.22991 258.64 8.73991 259.07 9.68991V9.69991Z" fill="#E7CEBD"/>
<path d="M268.55 17.94C270.7 20.14 270.66 23.67 268.46 25.83C266.09 28.14 262.31 26.49 260.57 25.74C259.24 25.17 257.24 24.3 256.96 22.64C256.53 20.1 260.5 17.94 260.66 17.85C261.23 17.55 265.79 15.12 268.55 17.94Z" fill="#E7CEBD"/>
<path d="M254.07 20.49C254.26 21.45 254.84 21.77 254.68 22.06C254.49 22.4 253.48 22.37 252.79 21.89C252.14 21.44 251.52 20.42 251.96 19.64C252.37 18.9 253.56 18.69 253.94 19.06C254.2 19.31 253.9 19.67 254.07 20.48V20.49Z" fill="#E7CEBD"/>
<path d="M269.45 31.1399C270.78 31.5199 271.94 33.4499 271.54 34.7399C270.91 36.7599 266.42 37.3699 263.13 36.4199C261.68 35.9999 258.95 34.8399 259.01 33.4699C259.07 32.1499 261.69 30.8099 263.8 31.0099C264.79 31.0999 264.96 31.4599 266.18 31.5099C267.96 31.5799 268.47 30.8599 269.45 31.1399Z" fill="#E7CEBD"/>
<path d="M250.08 26.59C249.91 28.2 248.14 29.01 247.03 29.2C245.03 29.53 242.86 28.22 242.9 27.27C242.92 26.71 243.67 26.67 245.62 25.18C247.13 24.02 247.32 23.56 247.94 23.58C249.02 23.63 250.24 25.13 250.09 26.59H250.08Z" fill="#E7CEBD"/>
<path d="M233.35 36.4699C232.7 36.4899 232.45 36.2099 230.47 35.9399C228.75 35.6999 228.45 35.8399 227.75 35.6499C226.01 35.1899 224.7 33.5199 224.18 32.1699C222.6 28.0599 226.74 22.5899 228.67 22.9299C228.92 22.9699 229.08 23.1099 229.72 23.8599C232.21 26.7699 232.31 27.5999 233.32 28.3299C235.31 29.7899 237.24 28.2699 238.03 29.3999C239.24 31.0999 236.17 36.3899 233.35 36.4699Z" fill="#E7CEBD"/>
<path d="M230.84 10.2799C230.3 11.0399 229.21 10.3799 228.15 11.2499C226.85 12.3199 227.44 14.1899 226.72 14.3999C225.91 14.6399 224.18 12.5199 223.81 10.1599C223.71 9.53988 223.35 7.18988 224.83 6.00988C225.78 5.25988 227.02 5.34988 227.26 5.36988C227.43 5.38988 228.24 5.46988 229.06 6.04988C230.55 7.08988 231.53 9.29988 230.83 10.2799H230.84Z" fill="#E7CEBD"/>
<path d="M289.34 34.5599C288.61 35.5999 286.63 34.6099 285.25 35.9599C284.29 36.9099 284.68 37.9699 283.94 38.3099C282.75 38.8499 279.94 36.9499 279.85 35.0199C279.72 32.2599 285.12 28.9399 287.8 30.4699C289.24 31.2899 290.02 33.5799 289.33 34.5599H289.34Z" fill="#E7CEBD"/>
<path d="M236.68 20.2899C237.55 20.7599 238.37 20.2299 238.55 20.5499C238.78 20.9499 237.8 22.3599 236.49 22.5799C234.97 22.8399 233.12 21.4999 233.23 20.2499C233.31 19.3099 234.5 18.3999 235.23 18.5999C235.9 18.7899 235.77 19.7999 236.68 20.2899Z" fill="#E7CEBD"/>
<path d="M275.42 14.11C276.762 14.11 277.85 13.0221 277.85 11.68C277.85 10.3379 276.762 9.25 275.42 9.25C274.078 9.25 272.99 10.3379 272.99 11.68C272.99 13.0221 274.078 14.11 275.42 14.11Z" fill="#E7CEBD"/>
<path d="M268.54 45.02C269.23 46.04 269.58 46.56 269.56 46.98C269.52 48.05 268.24 49.14 267.09 48.94C266.08 48.76 264.84 47.52 264.92 45.77C264.99 44.25 266.03 42.99 266.86 43.08C267.24 43.12 267.68 43.76 268.54 45.02Z" fill="#E7CEBD"/>
<path d="M277.78 25.6799C277.92 25.9999 277.38 26.8599 276.6 26.8599C275.95 26.8599 275.42 26.3299 275.42 25.6799C275.42 24.8999 276.3 24.3599 276.6 24.4999C276.79 24.5899 276.66 24.8899 276.94 25.2099C277.26 25.5799 277.68 25.4499 277.78 25.6799Z" fill="#E7CEBD"/>
<path d="M254.03 40.0899C253.44 40.6599 253.06 40.4799 251.85 41.2699C250.35 42.2499 250.3 42.9499 249.55 43.0599C248.3 43.2399 246.47 41.5899 246.49 40.0999C246.52 37.2999 253.12 34.5299 254.65 35.9999C255.47 36.7799 255.12 39.0399 254.02 40.0999L254.03 40.0899Z" fill="#E7CEBD"/>
</svg>
