
<svg width="185" height="267" viewBox="0 0 185 267" fill="none" xmlns="http://www.w3.org/2000/svg">
<path d="M0 266L0 267C110.24 223.02 137.44 179.96 141 148C145.97 103.29 105.93 68.99 122 25C132.89 -4.82 163.02 -21.15 185 -30L0 -30L0 266Z" fill="#BB6F4D"/>
<path d="M-13.94 248C34.63 225.05 53.68 198.41 62.02 178C77.13 141.02 59.96 117.35 82.79 88C101.72 63.66 124.87 65.36 136.8 40C145.61 21.29 141.93 1.38 137.76 -12L-19 -12C-17.31 74.67 -15.63 161.33 -13.94 248Z" stroke="#F3EBE1" stroke-width="2" stroke-miterlimit="10"/>
</svg>
