<svg width="352" height="389" viewBox="0 0 352 389" fill="none" xmlns="http://www.w3.org/2000/svg">
<path d="M357.525 0C351.51 0.77 342.048 3.14 333.404 11.49C325.918 18.72 322.234 27.34 315.92 45.19C302.372 83.47 303.513 88.44 296.909 103.17C286.572 126.21 272.552 139.07 264.672 146.3C240.803 168.19 229.924 161.24 203.772 176.94C168.481 198.13 148.336 234.8 133.828 261.2C113.431 298.32 117.422 308.38 103.079 333.2C88.2478 358.86 59.9865 389.65 0.574951 404.66H359.949C359.146 269.77 358.343 134.89 357.54 0L357.525 0Z" fill="#BB6F4D"/>
<path d="M357.706 30.8901C329.712 14.5301 315.235 17.6801 307.135 24.6201C280.432 47.4801 308.142 123.45 277.322 155.55C260.492 173.08 243.07 159.28 220.036 184.66C218.312 186.56 204.457 202.16 198.333 225.26C183.879 279.74 221.083 343.32 249.589 373.86C293.114 420.49 344.905 420.68 361.744 419.82C375.717 427.22 389.698 434.63 403.671 442.03C388.352 304.99 373.025 167.95 357.706 30.9101V30.8901Z" stroke="#F3EBE1" stroke-width="2" stroke-miterlimit="10"/>
</svg>
