
<svg width="213" height="218" viewBox="0 0 213 218" fill="none" xmlns="http://www.w3.org/2000/svg">
<path d="M288.99 45.35C297.93 122.04 244.29 197.34 198.78 206.37C192.75 207.57 169.43 212.2 152.82 199.48C142.5 191.58 142.94 183.22 135.97 172.67C118.36 146 88.5799 158.49 54.0099 136.67C22.9599 117.07 0.579891 77.73 6.72989 45.35C9.33989 31.6 16.4899 22.32 21.8399 15.64C79.8399 -56.72 108.85 -92.9 147.86 -95.78C211.77 -100.49 280.21 -29.98 288.99 45.35Z" fill="#ACC4AB"/>
<path d="M70.0899 -28.01C70.2499 -19.37 68.9999 -7.56001 61.6699 2.62999C54.2999 12.88 46.3699 13.7 34.8599 21.78C28.8199 26.02 6.62991 42.48 1.91991 69.27C1.22991 73.22 -3.22009 101.29 16.1299 124.4C29.5399 140.41 49.3099 147.99 66.2399 148.31C88.8899 148.74 94.3399 135.93 117.56 139.11C121.87 139.7 137.22 142 149.72 153.58C160.56 163.62 157.47 169.73 168.13 184.93C182.63 205.62 206.52 220.22 212.56 215.57C213.66 214.72 214.69 212.83 214.09 208.19C219.45 138.14 224.81 68.09 230.18 -1.96001C176.82 -10.64 123.46 -19.32 70.0899 -28V-28.01Z" stroke="#F3EBE1" stroke-width="2" stroke-miterlimit="10"/>
</svg>
