
<svg width="252" height="105" viewBox="0 0 252 105" fill="none" xmlns="http://www.w3.org/2000/svg">
<path d="M15.184 58.48C14.0693 54.0213 13.2186 49.5333 12.632 45.016C12.0453 40.44 11.5173 32.9307 11.048 22.488C11.048 21.784 11.2826 21.168 11.752 20.64C12.28 20.112 12.8666 19.848 13.512 19.848H14.304C14.5973 21.784 14.8026 24.8933 14.92 29.176C14.92 29.6453 14.9786 31.2293 15.096 33.928C15.2133 36.568 15.5066 39.0613 15.976 41.408C22.7813 40.7627 28.208 39.4427 32.256 37.448C36.3626 35.4533 38.416 32.608 38.416 28.912C38.416 24.2773 36.3626 20.4933 32.256 17.56C28.1493 14.6267 21.96 13.16 13.688 13.16C10.2266 13.16 7.2933 13.8053 4.88797 15.096C4.4773 15.272 4.18397 15.6533 4.00797 16.24C3.83197 16.768 3.6853 17.5307 3.56797 18.528C3.45064 19.584 3.30397 20.376 3.12797 20.904C2.95197 21.432 2.6293 21.696 2.15997 21.696C1.63197 21.696 1.27997 21.3147 1.10397 20.552C0.986636 19.7307 0.927969 17.8827 0.927969 15.008C0.927969 13.3653 2.04264 12.0747 4.27197 11.136C6.5013 10.1973 9.37597 9.728 12.896 9.728C23.1626 9.728 30.7893 11.3413 35.776 14.568C40.7626 17.7947 43.256 22.752 43.256 29.44C43.256 33.0187 41.8186 36.0107 38.944 38.416C36.0693 40.8213 32.5786 42.6107 28.472 43.784C24.3653 44.8987 20.4346 45.456 16.68 45.456C16.7973 46.16 16.9146 46.8053 17.032 47.392C17.1493 47.9787 17.2373 48.4773 17.296 48.888C18.1173 52.8773 18.528 55.9573 18.528 58.128C18.528 59.4187 18.352 60.4453 18 61.208C17.7066 61.9707 17.032 62.2347 15.976 62L15.184 58.48ZM53.1608 61.384C51.8701 54.9893 50.8728 47.4213 50.1688 38.68C49.5234 29.88 49.2008 21.3733 49.2008 13.16C49.2008 9.05333 49.2888 5.416 49.4648 2.248C49.4648 1.48533 50.0514 1.104 51.2248 1.104C52.1634 1.104 52.7501 1.33866 52.9848 1.808C53.2781 2.27733 53.4248 3.01066 53.4248 4.008C53.4248 13.512 53.6008 21.6373 53.9528 28.384C54.3048 35.072 54.7741 42.288 55.3608 50.032C55.7128 55.0187 55.9474 58.392 56.0648 60.152C56.1234 61.0907 55.6248 61.56 54.5688 61.56C54.2168 61.56 53.7474 61.5013 53.1608 61.384ZM103.582 61.56C102.526 61.56 101.675 61.12 101.03 60.24C100.443 59.3013 99.9154 57.8933 99.446 56.016C98.9767 54.08 98.2434 50.736 97.246 45.984C96.2487 49.9147 94.3714 53.0533 91.614 55.4C88.8567 57.688 85.4834 58.832 81.494 58.832C77.8567 58.832 74.7767 57.5707 72.254 55.048C69.79 52.4667 67.942 49.0933 66.71 44.928C65.478 40.704 64.862 36.1573 64.862 31.288C64.862 29.0587 65.0674 27.152 65.478 25.568C65.9474 23.9253 66.5047 22.6933 67.15 21.872C67.854 21.0507 68.5287 20.6693 69.174 20.728C69.878 20.728 70.23 21.1973 70.23 22.136C70.23 22.8987 70.0247 24.1013 69.614 25.744C69.2034 27.5627 68.998 29.6453 68.998 31.992C68.998 35.512 69.4967 38.944 70.494 42.288C71.55 45.632 73.0754 48.3893 75.07 50.56C77.1234 52.672 79.5287 53.728 82.286 53.728C84.574 53.728 86.6567 53.0533 88.534 51.704C90.4114 50.3547 91.878 48.6533 92.934 46.6C94.0487 44.5467 94.606 42.5227 94.606 40.528V26.536C95.2514 25.304 96.1314 24.688 97.246 24.688C98.2434 24.688 98.918 25.5387 99.27 27.24C99.622 28.9413 99.798 31.3467 99.798 34.456C99.798 37.096 99.7687 39.12 99.71 40.528C100.062 42.464 100.59 44.4293 101.294 46.424C102.057 48.4187 102.995 50.6773 104.11 53.2C105.459 56.3093 106.134 58.216 106.134 58.92C106.134 60.68 105.283 61.56 103.582 61.56ZM127.988 104.944C123.06 104.944 118.924 103.536 115.58 100.72C112.294 97.9627 110.329 93.2987 109.684 86.728C109.625 85.7307 109.772 84.968 110.124 84.44C110.534 83.912 111.062 83.648 111.708 83.648C112.412 83.648 113.028 83.912 113.556 84.44C114.084 85.0267 114.318 85.7893 114.26 86.728C114.26 90.6 115.58 93.6507 118.22 95.88C120.918 98.168 124.35 99.312 128.516 99.312C130.921 99.312 133.033 98.432 134.852 96.672C136.729 94.912 138.166 92.448 139.164 89.28C140.161 86.1707 140.66 82.592 140.66 78.544C140.66 71.4453 140.748 64.552 140.924 57.864L141.012 53.376C138.724 55.7813 136.641 57.5413 134.764 58.656C132.945 59.7707 130.745 60.328 128.164 60.328C123.646 60.328 120.302 59.1253 118.132 56.72C116.02 54.256 114.964 50.5013 114.964 45.456C114.964 42.5813 115.726 39.5893 117.252 36.48C118.836 33.312 120.977 30.672 123.676 28.56C126.433 26.448 129.542 25.392 133.004 25.392C134.177 25.392 135.262 25.5093 136.26 25.744C140.014 26.5653 142.537 30.056 143.828 36.216C145.118 42.376 145.764 50.3547 145.764 60.152C145.764 62.8507 145.705 66.4293 145.588 70.888L145.5 79.248C145.5 82.592 144.972 86.2293 143.916 90.16C142.86 94.1493 141.012 97.6107 138.372 100.544C135.732 103.477 132.27 104.944 127.988 104.944ZM126.844 54.52C131.185 54.52 134.47 53.4933 136.7 51.44C138.929 49.328 140.044 46.248 140.044 42.2C140.044 41.672 139.985 40.7627 139.868 39.472C139.574 36.7733 138.87 34.6613 137.756 33.136C136.7 31.552 135.028 30.76 132.74 30.76C130.334 30.76 128.134 31.6107 126.14 33.312C124.145 35.0133 122.59 37.1253 121.476 39.648C120.361 42.112 119.804 44.4293 119.804 46.6C119.804 48.7707 120.449 50.648 121.74 52.232C123.03 53.7573 124.732 54.52 126.844 54.52ZM158.717 62.088C157.367 62.088 156.282 60.1227 155.461 56.192C154.639 52.2027 154.111 48.7707 153.877 45.896C153.642 43.0213 153.319 38.4747 152.909 32.256C152.85 31.2587 152.821 29.968 152.821 28.384C152.821 26.3893 152.967 25.0107 153.261 24.248C153.613 23.4853 154.17 23.104 154.933 23.104C155.578 23.104 156.077 23.2507 156.429 23.544C156.839 23.7787 157.191 24.1893 157.485 24.776L157.397 28.296C157.397 32.0507 157.573 35.6 157.925 38.944C158.335 42.288 158.951 46.776 159.773 52.408C160.242 54.872 160.565 56.896 160.741 58.48C160.858 59.3013 160.711 60.1227 160.301 60.944C159.89 61.7067 159.362 62.088 158.717 62.088ZM156.517 13.688C155.226 13.688 154.258 13.1893 153.613 12.192C153.026 11.1947 152.733 9.96267 152.733 8.496C152.733 7.85066 152.762 7.38133 152.821 7.088C152.762 6.14933 153.29 5.68 154.405 5.68C155.226 5.68 156.047 5.88533 156.869 6.296C157.749 6.648 158.013 6.912 157.661 7.088C158.247 8.61333 158.541 9.816 158.541 10.696C158.541 11.4587 158.365 12.0747 158.013 12.544C157.661 12.9547 157.162 13.336 156.517 13.688ZM190.281 0.0479951C192.921 0.0479951 195.444 0.722662 197.849 2.072C200.255 3.36266 202.191 5.03466 203.657 7.088C205.183 9.14133 205.945 11.1947 205.945 13.248H204.009C203.129 13.248 202.337 12.984 201.633 12.456C200.988 11.928 200.137 11.0773 199.081 9.904C197.556 8.26133 196.177 7.02933 194.945 6.208C193.772 5.38667 192.247 4.976 190.369 4.976C187.143 4.976 184.444 6.472 182.273 9.464C180.103 12.3973 178.812 15.8587 178.401 19.848C178.225 21.6667 178.137 23.4853 178.137 25.304C178.137 28.296 178.343 31.0533 178.753 33.576C179.516 33.6933 181.305 33.84 184.121 34.016C186.937 34.192 189.255 34.3387 191.073 34.456C191.719 34.456 192.98 34.5147 194.857 34.632C195.444 34.632 195.855 34.7787 196.089 35.072C196.383 35.3067 196.529 35.7467 196.529 36.392C196.529 37.976 194.74 38.768 191.161 38.768C188.052 38.768 184.151 38.2107 179.457 37.096C180.103 39.736 180.924 42.1707 181.921 44.4C182.919 46.5707 184.209 49.1813 185.793 52.232C186.908 54.4027 187.729 56.104 188.257 57.336C188.785 58.5093 189.049 59.5067 189.049 60.328C189.049 60.9733 188.844 61.4427 188.433 61.736C188.023 61.9707 187.436 62.088 186.673 62.088C185.089 62.088 183.593 60.416 182.185 57.072C180.836 53.6693 179.281 48.976 177.521 42.992L175.937 37.8C174.647 37.9173 173.033 38.2693 171.097 38.856C170.921 38.9147 170.305 39.0907 169.249 39.384C168.252 39.6187 167.343 39.736 166.521 39.736C165.583 39.736 165.113 39.1787 165.113 38.064C165.113 36.5973 165.876 35.6293 167.401 35.16C168.927 34.632 170.364 34.3387 171.713 34.28C173.063 34.1627 173.913 34.0747 174.265 34.016C174.148 31.7867 174.089 29.792 174.089 28.032C174.089 20.464 175.233 13.9227 177.521 8.408C179.868 2.83466 184.121 0.0479951 190.281 0.0479951ZM233.566 103.624C229.576 103.624 225.998 102.773 222.83 101.072C219.72 99.3707 217.227 97.4053 215.35 95.176C213.472 92.9467 212.416 91.128 212.182 89.72C211.947 88.4293 212.24 87.432 213.062 86.728C213.942 86.024 215.027 85.7307 216.318 85.848C218.136 90.1893 220.307 93.5333 222.83 95.88C225.352 98.2267 228.96 99.4587 233.654 99.576C236.939 99.6347 239.55 97.5227 241.486 93.24C243.48 89.016 244.888 83.824 245.71 77.664C246.531 71.5627 246.942 65.5493 246.942 59.624C246.942 56.5733 246.854 54.08 246.678 52.144C242.219 57.6 236.528 60.328 229.606 60.328C223.622 60.328 219.016 57.4827 215.79 51.792C212.622 46.1013 210.568 39.6773 209.63 32.52C209.512 31.816 209.454 30.8187 209.454 29.528C209.454 25.832 210.656 23.984 213.062 23.984C213.296 23.984 213.619 25.4507 214.03 28.384C214.675 33.0187 215.467 37.184 216.406 40.88C217.344 44.576 218.899 47.9493 221.07 51C223.299 53.992 226.232 55.488 229.87 55.488C232.744 55.488 235.678 54.5493 238.67 52.672C241.72 50.736 243.92 48.5947 245.27 46.248C245.27 41.7893 244.683 37.8 243.51 34.28C242.395 30.7013 241.808 28.7947 241.75 28.56C241.632 27.2693 241.574 26.448 241.574 26.096C241.574 24.9227 241.75 24.072 242.102 23.544C242.512 23.016 243.099 22.752 243.862 22.752C244.683 22.752 245.622 24.424 246.678 27.768C247.734 31.112 248.672 35.4827 249.494 40.88C250.315 46.2773 250.872 51.9093 251.166 57.776C251.283 60.8267 251.342 63.0853 251.342 64.552C251.342 75.816 249.934 85.144 247.118 92.536C244.36 99.928 239.843 103.624 233.566 103.624Z" fill="#E6CEBD"/>
</svg>
