<svg width="120" height="373" viewBox="0 0 120 373" fill="none" xmlns="http://www.w3.org/2000/svg">
<path d="M-23.793 1.4488L118.744 -2.27295C121.362 25.2375 112.808 48.4707 97.6012 55.6017C94.7752 56.9279 84.0821 61.9481 74.5972 57.8236C68.6327 55.2337 68.5077 51.3522 62.3627 48.7831C54.7456 45.603 44.5525 47.2278 37.9005 52.5049C25.6313 62.2328 29.11 81.3971 29.3877 82.8205C33.6441 104.464 55.0095 104.332 71.4032 126.961C87.54 149.229 94.1642 187.057 79.3813 209.395C68.6813 225.566 51.7321 226.094 36.8312 251.945C31.9013 260.493 29.7419 267.401 28.8531 270.561C23.9718 287.927 26.7908 301.48 27.2561 307.792C28.2837 321.728 20.9166 342.704 -17.9534 372.68C-19.8976 248.932 -21.8488 125.19 -23.793 1.4488Z" fill="#BB6F4D"/>
<path d="M-32.3057 271.096C19.41 247.918 37.1508 220.831 43.9277 200.737C61.1131 149.785 24.0553 95.6386 52.7877 67.9337C63.9599 57.1572 76.1528 59.0042 86.6862 43.3603C97.4349 27.397 96.5253 7.97583 94.2755 -5.46C52.0795 -9.72336 9.89038 -13.9798 -32.3057 -18.2292V271.096Z" stroke="#F3EBE1" stroke-width="2" stroke-miterlimit="10"/>
</svg>
