<svg width="273" height="187" viewBox="0 0 273 187" fill="none" xmlns="http://www.w3.org/2000/svg">
<path d="M288.267 186.136C287.344 114.299 286.421 42.4542 285.498 -29.3821H74.8209C66.5516 -27.9255 28.9597 -20.4161 10.3764 11.5031C-16.8471 58.2509 13.9592 127.762 51.2615 139.705C96.2812 154.117 141.437 81.7108 190.772 101.588C213.671 110.816 223.813 127.925 223.813 127.925C233.005 143.432 228.364 154.09 236.289 166.041C242.107 174.826 255.135 184.932 288.267 186.136Z" fill="#ACC4AB"/>
<path d="M40.1696 -23.8361C35.6369 -17.6567 20.9892 3.92129 23.2691 33.5876C25.3771 60.9198 41.7258 93.4451 67.1942 100.9C107.862 112.816 144.296 52.7681 170.452 66.2487C191.515 77.1055 174.94 119.692 200.58 146.535C221.588 168.529 258.909 167.335 287.96 162.576C327.56 96.0507 367.161 29.5254 406.761 -37L40.1696 -23.8361Z" stroke="#F3EBE1" stroke-width="2" stroke-miterlimit="10"/>
</svg>
